<?xml version="1.0" encoding="utf-8"?>
<!-- Generator: Adobe Illustrator 26.0.1, SVG Export Plug-In . SVG Version: 6.00 Build 0)  -->
<svg version="1.1" id="Layer_1" xmlns="http://www.w3.org/2000/svg" xmlns:xlink="http://www.w3.org/1999/xlink" x="0px" y="0px"
	 width="800px" height="300.6px" viewBox="0 0 800 300.6" style="enable-background:new 0 0 800 300.6;" xml:space="preserve">
<style type="text/css">
	.st0{fill:#DBD1F6;}
	.st1{fill:#A1AFFF;}
	.st2{fill:url(#SVGID_1_);}
	.st3{fill:#4C57E2;}
	.st4{fill:#3426AA;}
	.st5{fill:#EDE5FF;}
	.st6{opacity:0.33;fill:#3426AA;}
	.st7{fill:#FC8F77;}
	.st8{fill:#F16952;}
	.st9{fill:url(#SVGID_00000157999885528524307840000006851311004798216583_);}
	.st10{fill:#2C40C2;}
	.st11{fill:#8199F5;}
	.st12{fill:#F6F5FC;}
	.st13{font-family:'Quicksand-Bold';}
	.st14{font-size:8.757px;}
	.st15{fill:#EDECF9;}
	.st16{fill:url(#SVGID_00000047032902131512880000000011702244300318632099_);}
	.st17{fill:#5E71EC;}
</style>
<g>
	<g>
		<path class="st0" d="M764.1,113.9c-1.5,0-3,0.4-4.3,1c-1.1-4.5-5.2-7.8-10-7.8c0,0,0,0-0.1,0c-0.8-6.2-6.2-11.1-12.6-11.1
			c-7,0-12.8,5.7-12.8,12.8c0,1.1,0.2,2.1,0.4,3.1c-3.3,0.2-6,2.2-7.2,5.1c-1.4-1-3-1.6-4.8-1.6c-4.1,0-7.4,3-8,6.9h69
			C773.1,117.6,769,113.9,764.1,113.9z"/>
		<path class="st1" d="M650.7,91.9c-1.9,0-3.6,0.4-5.2,1.2c-1.4-5.5-6.3-9.5-12.2-9.5c0,0-0.1,0-0.1,0c-1-7.6-7.5-13.5-15.4-13.5
			c-8.6,0-15.5,7-15.5,15.5c0,1.3,0.2,2.6,0.5,3.8c-4,0.2-7.4,2.7-8.8,6.2c-1.7-1.2-3.7-2-5.9-2c-5,0-9.1,3.6-9.8,8.4h84.1
			C661.6,96.3,656.7,91.9,650.7,91.9z"/>
		<linearGradient id="SVGID_1_" gradientUnits="userSpaceOnUse" x1="690.28" y1="278.1861" x2="692.8758" y2="227.5687">
			<stop  offset="0" style="stop-color:#A1AFFF"/>
			<stop  offset="1" style="stop-color:#C5D0FF"/>
		</linearGradient>
		<path class="st2" d="M791.8,260.6c0-3.6-45-6.5-100.6-6.5c-55.6,0-100.6,2.9-100.6,6.5c0,3.6,45,6.5,100.6,6.5
			C746.7,267.1,791.8,264.2,791.8,260.6z"/>
		<g>
			<path class="st3" d="M620.9,223.1c0,0,4.2-18.2-4.9-28.7C616,194.4,611.6,207.8,620.9,223.1z"/>
			<path class="st3" d="M612.5,214.1c0,0,0.5-16.7-9.3-24.4C603.2,189.8,601.7,202.3,612.5,214.1z"/>
			<path class="st3" d="M602.5,206.7c0,0-1-14.3-10-19.9C592.5,186.8,592.3,197.6,602.5,206.7z"/>
			<path class="st3" d="M600.7,205.7c0,0-13.6-4.3-22.2,1.9C578.5,207.6,588.5,211.8,600.7,205.7z"/>
			<path class="st3" d="M610.8,213.6c0,0-15.5-4.9-25.3,2.2C585.6,215.8,596.9,220.5,610.8,213.6z"/>
			<path class="st3" d="M620.1,221.8c0,0-16.7-5.3-27.2,2.4C592.8,224.1,605.1,229.2,620.1,221.8z"/>
			<path class="st3" d="M629.3,234.4c0,0,7.5-19.9-1-33.2C628.3,201.2,621.3,215.7,629.3,234.4z"/>
			<path class="st3" d="M628.6,232.8c0,0-18.1-8.6-31.1-1.5C597.5,231.2,610.5,238.9,628.6,232.8z"/>
			<path class="st3" d="M594.8,202.4c0,0-7.4-11-17.2-11.4C577.6,191,582.4,199.8,594.8,202.4z"/>
			<path class="st3" d="M592.2,200c23.5,11.7,41.6,32.9,49.5,57.9c0.3,1.1-1.3,1.8-1.6,0.7c-7.7-24.6-25.5-45.5-48.5-57
				C590.5,201.1,591.2,199.5,592.2,200L592.2,200z"/>
		</g>
		<g>
			<path class="st1" d="M668.5,220.3c0,0-2.9-19.4,7.4-29.7C676,190.6,679.4,205.1,668.5,220.3z"/>
			<path class="st1" d="M678.1,211.6c0,0,0.9-17.6,11.8-24.8C689.8,186.8,690.3,200.1,678.1,211.6z"/>
			<path class="st1" d="M689.1,204.6c0,0,2.3-14.9,12.1-20.1C701.3,184.6,700.6,195.9,689.1,204.6z"/>
			<path class="st1" d="M691.1,203.7c0,0,14.7-3.4,23.1,3.8C714.2,207.6,703.4,211.1,691.1,203.7z"/>
			<path class="st1" d="M679.8,211.2c0,0,16.7-3.9,26.3,4.4C706.2,215.6,693.9,219.6,679.8,211.2z"/>
			<path class="st1" d="M669.5,219c0,0,18-4.2,28.4,4.7C697.8,223.7,684.6,228,669.5,219z"/>
			<path class="st1" d="M658.8,231.5c0,0-6.3-21.5,3.8-34.7C662.6,196.8,668.7,212.5,658.8,231.5z"/>
			<path class="st1" d="M659.6,229.8c0,0,19.7-7.5,32.8,0.9C692.4,230.8,678.1,237.7,659.6,229.8z"/>
			<path class="st1" d="M697.5,200.8c0,0,8.7-10.9,19-10.6C716.5,190.2,710.7,199,697.5,200.8z"/>
			<path class="st1" d="M700.5,198.5c-25.6,10.4-46.3,31.1-56.6,56.7c-0.4,1.1,1.2,2,1.7,0.9c10.1-25.1,30.4-45.6,55.5-55.8
				C702.2,199.8,701.6,198,700.5,198.5L700.5,198.5z"/>
		</g>
		<g>
			<path class="st4" d="M746.3,127.9c0-4.4-3.6-8.1-8.1-8.1c-4.4,0-8.1,3.6-8.1,8.1c0,7.7,8.1,11.6,8.1,11.6S746.3,136,746.3,127.9z
				"/>
			<path class="st5" d="M741.5,126.9c0-1.8-1.5-3.2-3.2-3.2c-1.8,0-3.2,1.5-3.2,3.2c0,1.8,1.5,3.2,3.2,3.2
				C740,130.2,741.5,128.7,741.5,126.9z"/>
		</g>
		<g>
			<path class="st4" d="M635.4,175.7c0-4.1-3.3-7.3-7.3-7.3c-4.1,0-7.3,3.3-7.3,7.3c0,7,7.3,10.6,7.3,10.6S635.4,183,635.4,175.7z"
				/>
			<path class="st5" d="M631.1,174.8c0-1.6-1.3-3-3-3c-1.6,0-3,1.3-3,3c0,1.6,1.3,3,3,3C629.7,177.7,631.1,176.4,631.1,174.8z"/>
		</g>
		<g>
			<path class="st4" d="M624.5,125.8l-10.7-2.4c-1.3-0.3-2.5,0.5-2.8,1.8l-4.4,19.7c-0.3,1.3,0.5,2.5,1.8,2.8l10.7,2.4
				c1.3,0.3,2.5-0.5,2.8-1.8l4.4-19.7C626.6,127.3,625.8,126,624.5,125.8z"/>
			<g>
				<path class="st3" d="M775.8,241.9l-19.3,9c-2.2,1-4.9,0.1-5.9-2.2l-22.1-47.5c-1-2.2-0.1-4.9,2.2-5.9l19.3-9
					c2.2-1,4.9-0.1,5.9,2.2L778,236C779,238.2,778,240.9,775.8,241.9z"/>
				<path class="st4" d="M711.2,169.7L711.2,169.7c-1.2,0.6-1.7,2-1.2,3.2l36.7,79c0.6,1.2,2,1.7,3.2,1.2l0,0c1.2-0.6,1.7-2,1.2-3.2
					l-36.7-79C713.9,169.6,712.4,169.1,711.2,169.7z"/>
				<g>
					<circle class="st4" cx="749.4" cy="251.9" r="8"/>
					<path class="st0" d="M752.6,250.4c-0.8-1.8-2.9-2.5-4.7-1.7c-1.8,0.8-2.5,2.9-1.7,4.7c0.8,1.8,2.9,2.5,4.7,1.7
						C752.6,254.3,753.4,252.2,752.6,250.4z"/>
				</g>
				<path class="st6" d="M749.1,186.7l-17.6,8.2c-2.1,1-3.2,3.1-3.1,5.2l16.7-7.8c2-0.9,4.3-0.5,5.9,0.9l-21.4,10l0.8,1.7l21.8-10.1
					c0,0.1,0.1,0.2,0.1,0.3l2,4.4l-21.8,10.1l0.8,1.7l21.8-10.1l2.2,4.7l-21.8,10.1l0.8,1.7l21.8-10.1l2.2,4.7l-21.8,10.1l0.8,1.7
					l21.8-10.1l2.2,4.7l-21.8,10.1l0.8,1.7l21.8-10.1l2.2,4.7l-21.8,10.1l0.8,1.7l21.8-10.1l2.2,4.7L747.1,241l0.8,1.7l21.8-10.1
					l2.2,4.7l-21.8,10.1l0.8,1.7l21.8-10.1l0.9,1.9c0.3,0.6,0.5,1.3,0.5,2l0.9-0.4c2.7-1.3,3.9-4.5,2.6-7.2l-21.3-45.8
					C755,186.6,751.8,185.4,749.1,186.7z"/>
			</g>
			<path class="st1" d="M674.6,115.7l24.9,15c1.6,1,2.9,2.4,3.7,4.1l13.5,29.4l-10.1,2.8l-9.9-22.3c-0.8-1.8-2.3-3.1-4.1-3.7
				l-20.6-7L674.6,115.7z"/>
			<path class="st4" d="M708.4,252.4v3.8c0,1.3-1,2.4-2.1,2.4h-21.4c-1.8,0-2.9-2.3-1.8-3.9c1.3-2,10-4.3,14.6-5.9l8.7-0.3
				L708.4,252.4z"/>
			<path class="st4" d="M647.7,252.6v3.8c0,1.3-1,2.4-2.1,2.4h-21.4c-1.8,0-2.9-2.3-1.8-3.9c1.3-2,10-4.3,14.6-5.9l8.7-0.3
				L647.7,252.6z"/>
			<polygon class="st4" points="659.6,168.7 636.4,249.4 647.5,252.8 676.9,182 665,168.7 			"/>
			<path class="st3" d="M686.1,168.7h-23.5l33.5,80.5l12.2,3.3l-20.6-66.9C687.7,185.7,687.2,176,686.1,168.7z"/>
			<path class="st0" d="M659,120.7c-1.5,10.4-4.4,34.5-2.8,48.4l32.4,0.4c0,0,0.2-16.6-1.2-31.1c-0.8-8.8-4.1-17-12.3-22.7l-0.2-0.2
				l-10.2,0.1C661.8,115.7,659.4,117.9,659,120.7z"/>
			<path class="st3" d="M654.7,93.4c0,0-0.2-8.2,7.1-9c14.5-1.5,19.7,12.1,12.8,21.4c-6.9,9.3-16.3-7.1-16.3-7.1L654.7,93.4z"/>
			<path class="st7" d="M654.8,100.5c0,6.7,2,12,7.4,12c0.9,0,1.9-0.2,2.8-0.5v3.5h9.6v-9.6c0,0-7.9-2.2-8.3-4.7v1.3l-2.2,0.7
				l-0.4-6.1c0-1.2-2.3-2.2-3.5-2.3c-2.1-0.2-5.1-0.5-5.5-1.4L654.8,100.5z"/>
			<path class="st7" d="M671.3,102.1c0-1.6-1.2-2.8-2.6-2.8c-1.5,0-2.6,1.3-2.6,2.8c0,1.6,1.2,2.8,2.6,2.8
				C670.1,105,671.3,103.7,671.3,102.1z"/>
			<path class="st8" d="M665,112.1v3.5h9.6v-9.6C672,110.8,665,112.1,665,112.1z"/>
			<path class="st3" d="M654.6,93.3c0,0-13-2.4-3.3-15.2c0,0,3,5.2,7.8,3c5.8-2.6,19.8-0.9,18.8,14.7c-0.5,6.7-6.2,1.3-13.2-0.9
				C660.4,93.5,654.6,93.3,654.6,93.3z"/>
			<path class="st7" d="M707.8,166.2c0,0,0,9.4,4.5,8.5c1.4-0.3,2.6-0.6,3.6-0.8c1.7-0.4,2.6-2.2,1.9-3.8l-2.4-6.1
				C715.4,163.9,707.9,166.2,707.8,166.2z"/>
			<path class="st1" d="M676,131.5l-19.8,15.2c-0.6,8.1-0.7,16.3,0,22.5l1.2,0c1.6-5.8,4.5-14.6,7.3-18.1
				C669,145.7,676,131.5,676,131.5z"/>
			<path class="st0" d="M665.1,123.9l-9.2,13.9l-30.2-1.8l-1.8,9.5l35,6l17.1-20c2.6-3.5,1.1-8.6-3-10.1l0,0
				C670.1,120.3,666.8,121.3,665.1,123.9z"/>
			<path class="st7" d="M625.7,136c0,0-7.6-4.2-8.7-3.6s1,3,1,3l-5.6-0.8c-2.3-0.3-4.6,1.2-5.1,3.5l0,0c-0.6,2.4,0.9,4.9,3.3,5.5
				c4.3,1.1,10.7,2.6,13.4,2L625.7,136z"/>
		</g>
		<path class="st1" d="M764.3,65.7L764.3,65.7c-0.9-2.4-8.5-1.7-11.2-0.7c0,0-4.1,1.6-9.6,3.8l-21.4-14.2l-4.3,2.7l14.1,16.2
			c-8.5,3.4-16.4,6.5-16.5,6.6l-5.7-4.6l-3.8,1.3l5.8,11.1l0,0c1.3,1.5,3.7,2.1,5.9,1.2l43.6-17C763.8,70.9,765.2,68.1,764.3,65.7z"
			/>
		<path class="st3" d="M742.5,157.3l1.9,4.4c0.1,0.2,0.2,0.3,0.3,0.3l4.4,1.9c0.5,0.2,0.5,1,0,1.2l-4.4,1.9
			c-0.2,0.1-0.3,0.2-0.3,0.3l-1.9,4.4c-0.2,0.5-1,0.5-1.2,0l-1.9-4.4c-0.1-0.2-0.2-0.3-0.3-0.3l-4.4-1.9c-0.5-0.2-0.5-1,0-1.2
			l4.4-1.9c0.2-0.1,0.3-0.2,0.3-0.3l1.9-4.4C741.5,156.8,742.2,156.8,742.5,157.3z"/>
		<path class="st4" d="M648.4,59.8l1.4,3.3c0.1,0.1,0.1,0.2,0.3,0.3l3.3,1.4c0.4,0.2,0.4,0.7,0,0.9l-3.3,1.4
			c-0.1,0.1-0.2,0.1-0.3,0.3l-1.4,3.3c-0.2,0.4-0.7,0.4-0.9,0l-1.4-3.3c-0.1-0.1-0.1-0.2-0.3-0.3l-3.3-1.4c-0.4-0.2-0.4-0.7,0-0.9
			l3.3-1.4c0.1-0.1,0.2-0.1,0.3-0.3l1.4-3.3C647.7,59.4,648.3,59.4,648.4,59.8z"/>
		<path class="st1" d="M597,163.2l1.7,3.8c0.1,0.1,0.2,0.2,0.3,0.3l3.8,1.7c0.5,0.2,0.5,0.9,0,1.1l-3.8,1.7
			c-0.1,0.1-0.2,0.2-0.3,0.3l-1.7,3.8c-0.2,0.5-0.9,0.5-1.1,0l-1.7-3.8c-0.1-0.1-0.2-0.2-0.3-0.3l-3.8-1.7c-0.5-0.2-0.5-0.9,0-1.1
			l3.8-1.7c0.1-0.1,0.2-0.2,0.3-0.3l1.7-3.8C596.2,162.7,596.8,162.7,597,163.2z"/>
	</g>
	<g>
		
			<linearGradient id="SVGID_00000044888923349872960670000016223109111177808257_" gradientUnits="userSpaceOnUse" x1="402.0327" y1="286.3592" x2="404.6284" y2="235.7418">
			<stop  offset="0" style="stop-color:#A1AFFF"/>
			<stop  offset="1" style="stop-color:#C5D0FF"/>
		</linearGradient>
		<path style="fill:url(#SVGID_00000044888923349872960670000016223109111177808257_);" d="M503.5,268.8c0-3.6-45-6.5-100.6-6.5
			c-55.6,0-100.6,2.9-100.6,6.5c0,3.6,45,6.5,100.6,6.5C458.5,275.2,503.5,272.3,503.5,268.8z"/>
		<g>
			<path class="st3" d="M459.4,66.5c0,0-5.5-19.7,3.8-31.6C463.2,34.9,468.6,49.4,459.4,66.5z"/>
			<path class="st3" d="M468,56.3c0,0-1.4-18.2,8.9-27.1C476.9,29.2,479.2,42.8,468,56.3z"/>
			<path class="st3" d="M478.6,47.7c0,0,0.4-15.6,9.9-22.3C488.4,25.4,489.2,37.2,478.6,47.7z"/>
			<path class="st3" d="M480.4,46.5c0,0,14.7-5.4,24.3,1C504.7,47.4,494.1,52.5,480.4,46.5z"/>
			<path class="st3" d="M469.8,55.6c0,0,16.7-6.2,27.7,1.1C497.5,56.7,485.4,62.5,469.8,55.6z"/>
			<path class="st3" d="M460.2,65c0,0,18-6.6,29.8,1.2C490,66.2,476.9,72.4,460.2,65z"/>
			<path class="st3" d="M486.7,42.6c0,0,7.5-12.4,18.2-13.4C504.9,29.2,500,39,486.7,42.6z"/>
			<path class="st3" d="M489.4,39.8c-25,14-43.7,38.1-50.9,65.8c-0.3,1.2,1.5,1.9,1.8,0.7c7.1-27.2,25.4-50.9,49.9-64.7
				C491.3,41,490.5,39.2,489.4,39.8L489.4,39.8z"/>
		</g>
		<g>
			<path class="st1" d="M345,240.8c0,0-1.1-18.7-12.7-26.2C332.2,214.6,331.8,228.7,345,240.8z"/>
			<path class="st1" d="M334.4,234.5c0,0-4.3-16.2-15.8-20.8C318.6,213.7,320.7,226.2,334.4,234.5z"/>
			<path class="st1" d="M322.7,230.2c0,0-5-13.4-15.2-16.3C307.5,213.9,310.4,224.3,322.7,230.2z"/>
			<path class="st1" d="M320.8,229.7c0,0-14.3-0.3-20.8,8.1C300,237.8,310.7,239,320.8,229.7z"/>
			<path class="st1" d="M332.7,234.5c0,0-16.3-0.3-23.6,9.2C309,243.7,321.3,245,332.7,234.5z"/>
			<path class="st1" d="M343.8,239.7c0,0-17.5-0.4-25.5,9.9C318.4,249.6,331.5,251.1,343.8,239.7z"/>
			<path class="st1" d="M314.2,228.2c0,0-10.2-8.5-19.7-6.1C294.4,222.1,301.6,229.1,314.2,228.2z"/>
			<path class="st1" d="M311,226.6c25.8,4.7,49.2,19.9,63.7,41.7c0.6,0.9-0.7,2.1-1.4,1.1c-14.3-21.4-37.2-36.5-62.5-41.1
				C309.7,228.2,309.8,226.4,311,226.6L311,226.6z"/>
		</g>
		<path class="st0" d="M375.2,192.1c-1.8,0-3.6,0.4-5.1,1.2c-1.4-5.4-6.3-9.4-12.1-9.4c0,0-0.1,0-0.1,0c-1-7.5-7.4-13.4-15.3-13.4
			c-8.5,0-15.4,6.9-15.4,15.4c0,1.3,0.2,2.6,0.5,3.8c-3.9,0.2-7.3,2.7-8.7,6.2c-1.6-1.2-3.7-1.9-5.8-1.9c-4.9,0-9,3.6-9.7,8.3h83.3
			C386.1,196.5,381.2,192.1,375.2,192.1z"/>
		<g>
			<path class="st4" d="M453.7,66.6h-91.1c-7.6,0-13.7,6.1-13.7,13.7v178.5c0,7.6,6.1,13.7,13.7,13.7h91.1c7.6,0,13.7-6.1,13.7-13.7
				V80.3C467.4,72.8,461.3,66.6,453.7,66.6z"/>
			<path class="st5" d="M357.9,241.5V81.9c0-3.5,2.8-6.3,6.3-6.3h88c3.5,0,6.3,2.8,6.3,6.3v159.6c0,3.5-2.8,6.3-6.3,6.3h-88
				C360.7,247.8,357.9,245,357.9,241.5z"/>
			<path class="st5" d="M413.7,260.8c0-3-2.4-5.5-5.5-5.5c-3,0-5.5,2.4-5.5,5.5s2.4,5.5,5.5,5.5
				C411.2,266.3,413.7,263.8,413.7,260.8z"/>
		</g>
		<g>
			<g id="XMLID_32_">
				<path id="XMLID_36_" class="st3" d="M415.4,165.6h-2.7c-0.9,0-1.7,0.8-1.7,1.7v16.5c0,0.9,0.8,1.7,1.7,1.7h2.7V165.6z"/>
				<path id="XMLID_35_" class="st1" d="M435.5,165.6h-20c-1.1,0-1.9,0.9-1.9,1.9v16c0,1.1,0.9,1.9,1.9,1.9h20
					c1.1,0,1.9-0.9,1.9-1.9v-16C437.5,166.4,436.6,165.6,435.5,165.6z"/>
				<polygon id="XMLID_34_" class="st3" points="443.5,171.1 437.4,168.4 437.4,182.6 443.5,179.9 				"/>
				<path class="st10" d="M410.9,179.3v4.2c0,1.1,0.9,2.1,2.1,2.1h2.4v-6.2H410.9z"/>
				<polygon class="st10" points="437.4,179.3 437.4,182.6 443.5,179.9 443.5,179.3 				"/>
				<path id="XMLID_48_" class="st1" d="M435.5,165.6h-20c-1.1,0-1.9,0.9-1.9,1.9v16c0,1.1,0.9,1.9,1.9,1.9h20
					c1.1,0,1.9-0.9,1.9-1.9v-16C437.5,166.4,436.6,165.6,435.5,165.6z"/>
				<path class="st11" d="M413.6,179.2v4c0,1.3,1.1,2.4,2.4,2.4h19.1c1.3,0,2.4-1.1,2.4-2.4v-4H413.6z"/>
			</g>
			<path class="st1" d="M458.6,123.1H346.4c-2.8,0-5.6,0.4-8.3,1.3c-9.9,3.1-25.4,9.3-26.8,17.5c-2,12.1,24.4,15.5,24.4,15.5h102.5
				c5.2,0,10.4-0.8,15.4-2.2l4.9-1.5V123.1z"/>
			<path class="st11" d="M438.3,150.8H335.8c0,0-19.6-2.6-23.8-11.1c-0.3,0.7-0.5,1.4-0.7,2.1c-2,12.1,24.4,15.5,24.4,15.5h102.5
				c5.2,0,10.4-0.8,15.4-2.2l4.9-1.5v-6.6l-4.9,1.5C448.7,150,443.5,150.8,438.3,150.8z"/>
			<path class="st3" d="M338.8,130.4l-15.3-0.3c-3.2,1.6-6.1,3.5-8.3,5.5c9.7-0.5,14,4,14,4l9.6-3.1V130.4z"/>
			<polygon class="st0" points="423.6,143.3 362.8,143.3 485.3,191.5 499.9,191.5 			"/>
			<polygon class="st1" points="362.8,143.3 485.3,191.5 495,191.5 372.5,143.3 			"/>
			<polygon class="st1" points="485.3,191.5 495.1,178.5 499.9,178.5 499.9,191.5 			"/>
			<g id="XMLID_50_">
				<g id="XMLID_69_">
					<path id="XMLID_78_" class="st3" d="M451.5,130.3l3.2,0c0.8,0,1.4,0.6,1.4,1.4l0,3.9c0,0.8-0.6,1.4-1.4,1.4l-3.2,0
						c-0.8,0-1.4-0.6-1.4-1.4l0-3.9C450.1,131,450.8,130.3,451.5,130.3z"/>
					<path id="XMLID_77_" class="st3" d="M440.6,130.4l3.2,0c0.8,0,1.4,0.6,1.4,1.4l0,3.9c0,0.8-0.6,1.4-1.4,1.4l-3.2,0
						c-0.8,0-1.4-0.6-1.4-1.4l0-3.9C439.2,131.1,439.8,130.4,440.6,130.4z"/>
					<path id="XMLID_76_" class="st3" d="M429.6,130.5l3.2,0c0.8,0,1.4,0.6,1.4,1.4l0,3.9c0,0.8-0.6,1.4-1.4,1.4l-3.2,0
						c-0.8,0-1.4-0.6-1.4-1.4l0-3.9C428.2,131.2,428.8,130.5,429.6,130.5z"/>
					<path id="XMLID_75_" class="st3" d="M418.7,130.6l3.2,0c0.8,0,1.4,0.6,1.4,1.4l0,3.9c0,0.8-0.6,1.4-1.4,1.4l-3.2,0
						c-0.8,0-1.4-0.6-1.4-1.4l0-3.9C417.3,131.3,417.9,130.6,418.7,130.6z"/>
					<path id="XMLID_74_" class="st3" d="M407.7,130.7l3.2,0c0.8,0,1.4,0.6,1.4,1.4l0,3.9c0,0.8-0.6,1.4-1.4,1.4l-3.2,0
						c-0.8,0-1.4-0.6-1.4-1.4l0-3.9C406.3,131.4,406.9,130.8,407.7,130.7z"/>
					<path id="XMLID_73_" class="st3" d="M396.7,130.9l3.2,0c0.8,0,1.4,0.6,1.4,1.4l0,3.9c0,0.8-0.6,1.4-1.4,1.4l-3.2,0
						c-0.8,0-1.4-0.6-1.4-1.4l0-3.9C395.3,131.5,396,130.9,396.7,130.9z"/>
					<path id="XMLID_72_" class="st3" d="M385.8,131l3.2,0c0.8,0,1.4,0.6,1.4,1.4l0,3.9c0,0.8-0.6,1.4-1.4,1.4l-3.2,0
						c-0.8,0-1.4-0.6-1.4-1.4l0-3.9C384.4,131.6,385,131,385.8,131z"/>
					<path id="XMLID_71_" class="st3" d="M374.8,131.1l3.2,0c0.8,0,1.4,0.6,1.4,1.4l0,3.9c0,0.8-0.6,1.4-1.4,1.4l-3.2,0
						c-0.8,0-1.4-0.6-1.4-1.4l0-3.9C373.4,131.7,374.1,131.1,374.8,131.1z"/>
					<path id="XMLID_70_" class="st3" d="M363.6,131.2l3.7,0c0.6,0,1.2,0.5,1.2,1.2l0,4.4c0,0.6-0.5,1.2-1.2,1.2l-3.7,0
						c-0.6,0-1.2-0.5-1.2-1.2l0-4.4C362.5,131.7,363,131.2,363.6,131.2z"/>
				</g>
			</g>
		</g>
		<g>
			<path class="st3" d="M436.6,206.1H383c-2.3,0-4.3,1.9-4.3,4.3v10.8c0,2.3,1.9,4.3,4.3,4.3h53.6c2.3,0,4.3-1.9,4.3-4.3v-10.8
				C440.9,208,439,206.1,436.6,206.1z"/>
			<text transform="matrix(1 0 0 1 388.5107 218.8394)" class="st12 st13 st14">BOOK NOW</text>
		</g>
		<g>
			<path class="st4" d="M423,45.4c0-5.9-4.8-10.7-10.7-10.7c-5.9,0-10.7,4.8-10.7,10.7c0,10.2,10.7,15.4,10.7,15.4
				S423,56.1,423,45.4z"/>
			<path class="st5" d="M416.7,44.1c0-2.4-1.9-4.3-4.3-4.3c-2.4,0-4.3,1.9-4.3,4.3c0,2.4,1.9,4.3,4.3,4.3
				C414.7,48.4,416.7,46.5,416.7,44.1z"/>
		</g>
		<g>
			<path class="st3" d="M490.3,219.1c0-4.4-3.6-8-8-8c-4.4,0-8,3.6-8,8c0,7.6,8,11.5,8,11.5S490.3,227.1,490.3,219.1z"/>
			<path class="st5" d="M485.5,218.1c0-1.8-1.4-3.2-3.2-3.2s-3.2,1.4-3.2,3.2c0,1.8,1.4,3.2,3.2,3.2S485.5,219.9,485.5,218.1z"/>
		</g>
		<g>
			<path class="st1" d="M326.6,168.7c0-3.6-3-6.6-6.6-6.6s-6.6,3-6.6,6.6c0,6.3,6.6,9.5,6.6,9.5S326.6,175.3,326.6,168.7z"/>
			<circle class="st12" cx="320" cy="167.9" r="2.7"/>
		</g>
		<path class="st0" d="M488.9,103.9c-1.6,0-3.2,0.4-4.5,1.1c-1.2-4.8-5.5-8.3-10.6-8.3c0,0,0,0-0.1,0c-0.9-6.6-6.5-11.7-13.4-11.7
			c-7.5,0-13.5,6.1-13.5,13.5c0,1.2,0.2,2.3,0.4,3.3c-3.5,0.2-6.4,2.4-7.6,5.4c-1.4-1.1-3.2-1.7-5.1-1.7c-4.3,0-7.9,3.2-8.5,7.3
			h73.3C498.5,107.8,494.2,103.9,488.9,103.9z"/>
		<path class="st1" d="M392.7,76.2c-1.9,0-3.6,0.4-5.2,1.2c-1.4-5.5-6.3-9.5-12.2-9.5c0,0-0.1,0-0.1,0c-1-7.6-7.5-13.5-15.4-13.5
			c-8.6,0-15.5,7-15.5,15.5c0,1.3,0.2,2.6,0.5,3.8c-4,0.2-7.4,2.7-8.8,6.2c-1.7-1.2-3.7-2-5.9-2c-5,0-9.1,3.6-9.8,8.4h84.1
			C403.7,80.7,398.7,76.2,392.7,76.2z"/>
		<g>
			<path class="st3" d="M337.1,113.7l0.9,2.1c0,0.1,0.1,0.1,0.2,0.2l2.1,0.9c0.3,0.1,0.3,0.5,0,0.6l-2.1,0.9c-0.1,0-0.1,0.1-0.2,0.2
				l-0.9,2.1c-0.1,0.3-0.5,0.3-0.6,0l-0.9-2.1c0-0.1-0.1-0.1-0.2-0.2l-2.1-0.9c-0.3-0.1-0.3-0.5,0-0.6l2.1-0.9
				c0.1,0,0.1-0.1,0.2-0.2l0.9-2.1C336.7,113.5,337,113.5,337.1,113.7z"/>
			<path class="st3" d="M489.7,150.2l1.8,4.1c0.1,0.1,0.2,0.3,0.3,0.3l4.1,1.8c0.5,0.2,0.5,0.9,0,1.1l-4.1,1.8
				c-0.1,0.1-0.3,0.2-0.3,0.3l-1.8,4.1c-0.2,0.5-0.9,0.5-1.1,0l-1.8-4.1c-0.1-0.1-0.2-0.3-0.3-0.3l-4.1-1.8c-0.5-0.2-0.5-0.9,0-1.1
				l4.1-1.8c0.1-0.1,0.3-0.2,0.3-0.3l1.8-4.1C488.8,149.7,489.5,149.7,489.7,150.2z"/>
			<path class="st1" d="M478.1,136.3l1.1,2.6c0,0.1,0.1,0.2,0.2,0.2l2.6,1.1c0.3,0.1,0.3,0.6,0,0.7l-2.6,1.1c-0.1,0-0.2,0.1-0.2,0.2
				l-1.1,2.6c-0.1,0.3-0.6,0.3-0.7,0l-1.1-2.6c0-0.1-0.1-0.2-0.2-0.2l-2.6-1.1c-0.3-0.1-0.3-0.6,0-0.7l2.6-1.1
				c0.1,0,0.2-0.1,0.2-0.2l1.1-2.6C477.5,136,477.9,136,478.1,136.3z"/>
			<path class="st1" d="M314.4,104.3l1.3,3.1c0,0.1,0.1,0.2,0.2,0.2l3.1,1.3c0.4,0.2,0.4,0.7,0,0.8l-3.1,1.3c-0.1,0-0.2,0.1-0.2,0.2
				l-1.3,3.1c-0.2,0.4-0.7,0.4-0.8,0l-1.3-3.1c0-0.1-0.1-0.2-0.2-0.2l-3.1-1.3c-0.4-0.2-0.4-0.7,0-0.8l3.1-1.3
				c0.1,0,0.2-0.1,0.2-0.2l1.3-3.1C313.7,104,314.3,104,314.4,104.3z"/>
			<path class="st4" d="M336,93.3l1.1,2.5c0,0.1,0.1,0.2,0.2,0.2l2.5,1.1c0.3,0.1,0.3,0.6,0,0.7l-2.5,1.1c-0.1,0-0.2,0.1-0.2,0.2
				l-1.1,2.5c-0.1,0.3-0.6,0.3-0.7,0l-1.1-2.5c0-0.1-0.1-0.2-0.2-0.2l-2.5-1.1c-0.3-0.1-0.3-0.6,0-0.7l2.5-1.1
				c0.1,0,0.2-0.1,0.2-0.2l1.1-2.5C335.4,93,335.9,93,336,93.3z"/>
		</g>
	</g>
	<g>
		<g>
			<path class="st3" d="M122.3,105.4c0,0-13.9-17.6-9.5-33.7C112.8,71.7,124.5,84,122.3,105.4z"/>
			<path class="st3" d="M126.8,91.3c0,0-9.1-17.9-2.4-31.3C124.4,60,132.4,72.9,126.8,91.3z"/>
			<path class="st3" d="M133.8,78.1c0,0-6.2-16,0.6-26.8C134.5,51.3,140.2,63,133.8,78.1z"/>
			<path class="st3" d="M135.2,76.1c0,0,12.6-11.7,25.1-9.3C160.4,66.8,151.7,76.4,135.2,76.1z"/>
			<path class="st3" d="M128.3,89.9c0,0,14.3-13.3,28.6-10.6C156.9,79.3,147,90.3,128.3,89.9z"/>
			<path class="st3" d="M122.5,103.5c0,0,15.5-14.3,30.8-11.4C153.3,92.1,142.6,103.9,122.5,103.5z"/>
			<path class="st3" d="M139.9,69.5c0,0,2.4-15.8,12.8-21.3C152.8,48.2,152,60.2,139.9,69.5z"/>
			<path class="st3" d="M141.6,65.5c-19.5,24.8-28.3,57.2-23.9,88.4c0.2,1.3,2.3,1.3,2.1-0.1c-4.3-30.7,4.2-62.5,23.4-86.9
				C144,65.9,142.4,64.4,141.6,65.5L141.6,65.5z"/>
		</g>
		<g>
			<path class="st1" d="M159.3,103.1c0,0-1.1-20.6,10.8-30.3C170.1,72.8,172.2,88.2,159.3,103.1z"/>
			<path class="st1" d="M170.1,94.9c0,0,2.7-18.3,14.8-24.7C184.9,70.2,184.1,84.1,170.1,94.9z"/>
			<path class="st1" d="M182.4,88.8c0,0,3.9-15.3,14.7-19.8C197.1,69,195.2,80.8,182.4,88.8z"/>
			<path class="st1" d="M184.5,88c0,0,15.7-2.1,23.8,6.4C208.3,94.4,196.7,97,184.5,88z"/>
			<path class="st1" d="M172,94.7c0,0,17.9-2.4,27.1,7.3C199.1,102,185.8,104.9,172,94.7z"/>
			<path class="st1" d="M160.4,101.8c0,0,19.2-2.5,29.2,7.8C189.6,109.6,175.3,112.8,160.4,101.8z"/>
			<path class="st1" d="M191.6,85.6c0,0,10.2-10.6,21-9.1C212.5,76.4,205.6,85.1,191.6,85.6z"/>
			<path class="st1" d="M194.9,83.4c-27.8,8.3-51.6,27.9-65,53.6c-0.6,1.1,1.1,2.2,1.6,1.1c13.1-25.3,36.4-44.6,63.8-52.8
				C196.5,85,196.1,83.1,194.9,83.4L194.9,83.4z"/>
		</g>
		<path class="st1" d="M93.5,89.4c-1.9,0-3.7,0.5-5.4,1.2c-1.4-5.6-6.5-9.8-12.6-9.8c0,0-0.1,0-0.1,0c-1-7.9-7.8-14-15.9-14
			c-8.9,0-16.1,7.2-16.1,16.1c0,1.4,0.2,2.7,0.5,4c-4.1,0.2-7.6,2.8-9.1,6.5c-1.7-1.3-3.8-2-6.1-2c-5.1,0-9.4,3.8-10.1,8.7h87
			C104.8,94.1,99.7,89.4,93.5,89.4z"/>
		<g>
			<g>
				<polygon class="st11" points="72.4,126.2 50.4,115 50.4,211.1 72.4,222.3 				"/>
				<polygon class="st1" points="28.4,126.2 28.4,222.3 50.4,211.1 50.4,115 				"/>
			</g>
			<g>
				<polygon class="st11" points="116.4,126.2 94.4,115 94.4,211.1 116.4,222.3 				"/>
				<polygon class="st1" points="72.4,126.2 72.4,222.3 94.4,211.1 94.4,115 				"/>
			</g>
			<g>
				<polygon class="st11" points="160.4,126.2 138.4,115 138.4,211.1 160.4,222.3 				"/>
				<polygon class="st1" points="116.4,126.2 116.4,222.3 138.4,211.1 138.4,115 				"/>
			</g>
			<g>
				<polygon class="st11" points="204.4,126.2 182.4,115 182.4,211.1 204.4,222.3 				"/>
				<polygon class="st1" points="160.4,126.2 160.4,222.3 182.4,211.1 182.4,115 				"/>
			</g>
			<path class="st0" d="M204.4,222.3l-22-11.2l-22,11.2v0l0,0l0,0v0l-22-11.2l-22,11.2v0l0,0l0,0v0l-22-11.2l-22,11.2v0l0,0l0,0v0
				l-22-11.2l-22,11.2v-96.1l22-11.2l22,11.2l22-11.2l22,11.2l22-11.2l22,11.2l22-11.2l22,11.2V222.3z M182.4,107.1l-22,11.2
				l-22-11.2l-22,11.2l-22-11.2l-22,11.2l-22-11.2l-30.6,15.6v112L50.4,219l21.7,11.3l0,0l0.2-0.1L94.4,219l22.4,11.2l21.6-11.2
				l21.6,11.5l22.4-11.5l30.6,15.6v-112L182.4,107.1z"/>
		</g>
		<g>
			<path class="st4" d="M197.3,109.2c0-7.3-5.9-13.1-13.1-13.1c-7.3,0-13.1,5.9-13.1,13.1c0,12.5,13.1,18.9,13.1,18.9
				S197.3,122.4,197.3,109.2z"/>
			<circle class="st12" cx="184.2" cy="107.6" r="5.3"/>
		</g>
		<g>
			<path class="st4" d="M61.1,169.9c0-5.5-4.5-10-10-10c-5.5,0-10,4.5-10,10c0,9.5,10,14.4,10,14.4S61.1,179.9,61.1,169.9z"/>
			<path class="st12" d="M55.1,168.7c0-2.2-1.8-4-4-4c-2.2,0-4,1.8-4,4c0,2.2,1.8,4,4,4C53.3,172.7,55.1,170.9,55.1,168.7z"/>
		</g>
		<path class="st15" d="M189.7,217.9c0-1-0.8-1.7-1.7-1.7c-1,0-1.7,0.8-1.7,1.7c0,1,0.8,1.7,1.7,1.7
			C188.9,219.6,189.7,218.9,189.7,217.9z"/>
		<g>
			
				<linearGradient id="SVGID_00000080201611159033917040000016589472833952606143_" gradientUnits="userSpaceOnUse" x1="107.9147" y1="282.5245" x2="110.5105" y2="231.9072">
				<stop  offset="0" style="stop-color:#A1AFFF"/>
				<stop  offset="1" style="stop-color:#C5D0FF"/>
			</linearGradient>
			<path style="fill:url(#SVGID_00000080201611159033917040000016589472833952606143_);" d="M209.4,264.9c0-3.6-45-6.5-100.6-6.5
				S8.2,261.3,8.2,264.9c0,3.6,45,6.5,100.6,6.5S209.4,268.5,209.4,264.9z"/>
			<path class="st4" d="M198.5,255.9l1.6,3.7c0.1,0.1,0.2,0.2,0.3,0.3l3.7,1.6c0.4,0.2,0.4,0.8,0,1l-3.7,1.6
				c-0.1,0.1-0.2,0.2-0.3,0.3l-1.6,3.7c-0.2,0.4-0.8,0.4-1,0l-1.6-3.7c-0.1-0.1-0.2-0.2-0.3-0.3l-3.7-1.6c-0.4-0.2-0.4-0.8,0-1
				l3.7-1.6c0.1-0.1,0.2-0.2,0.3-0.3l1.6-3.7C197.7,255.4,198.3,255.4,198.5,255.9z"/>
		</g>
		<path class="st11" d="M36.3,95.9l1.5,3.4c0.1,0.1,0.1,0.2,0.3,0.3l3.4,1.5c0.4,0.2,0.4,0.8,0,1l-3.4,1.5c-0.1,0.1-0.2,0.1-0.3,0.3
			l-1.5,3.4c-0.2,0.4-0.8,0.4-1,0l-1.5-3.4c-0.1-0.1-0.1-0.2-0.3-0.3l-3.4-1.5c-0.4-0.2-0.4-0.8,0-1l3.4-1.5
			c0.1-0.1,0.2-0.1,0.3-0.3l1.5-3.4C35.5,95.4,36.1,95.4,36.3,95.9z"/>
		<path class="st4" d="M21.6,77.9l1.8,4.2c0.1,0.1,0.2,0.3,0.3,0.3l4.2,1.8c0.5,0.2,0.5,0.9,0,1.2l-4.2,1.8
			c-0.1,0.1-0.3,0.2-0.3,0.3l-1.8,4.2c-0.2,0.5-0.9,0.5-1.2,0l-1.8-4.2c-0.1-0.1-0.2-0.3-0.3-0.3l-4.2-1.8c-0.5-0.2-0.5-0.9,0-1.2
			l4.2-1.8c0.1-0.1,0.3-0.2,0.3-0.3l1.8-4.2C20.6,77.4,21.4,77.4,21.6,77.9z"/>
		<g>
			<g>
				<path class="st17" d="M183.9,151l-0.6-1.8c0,0-0.3-0.1-0.6-0.4c-1-0.6-2.9-1.6-2.8-1.6c0.2,0.1,0.1,0.8,0.1,0.8l-0.8,0.7
					l-1.3-1.1l-2.5,0.3l-1,0.1l-0.1-0.6l-0.1-0.5l-0.1-0.5l-5.9-1.3L167,145l0.2,0.8l-2.9-0.4l-0.7-0.1l-1-2.1l-1.9-0.1l-0.5,1
					l-1.6-1.1l-0.5,0.3l-0.6,0.3H156l-1.2,0.5l-1.3,0.5l1.2-1l2.3-1.9l0.8-0.7L156,138l-1.1,0.4l-0.3,0.1l-0.8-1.2l-0.1-0.2
					l-1.5,1.5l-0.8,1.5l-0.9-0.2l-1-0.3l-2.5,1.5l-0.6,2.5l-1.6,0.3l0.3,1.2l0.7,2.6l-1.8-1.5l-1.1-0.9l-0.6,1.4l0,1.1l0,2.7l-1-1.2
					l0-0.4l-0.2-4.4l-2,2.1l-0.2,2.4l-2.6-0.9l-2.2,1.3l-3.7,2.3l-1.3,1.3l-1.2,1.2l-1.3-1.5l1.1-1.3l0.4-0.5L127,148l-1.6-0.4
					l-0.2,0l-0.9-0.2l-0.7-0.2c0,0-4.5,3.1-4.5,3.2c-0.1,0.2-3.1,6.4-3.1,6.4l0.2,0l2.1,0l-0.4,2l2.3-1.2l1.1-4l3.2-1.9l-2,3.7
					l3-0.4l-0.7,1.5l-1.9,1.8l-3.1,3l-3.3-0.3l-1.2,1.3l-1.5,1.6l0,0l-0.4,2.3l-3.2,0.5l-0.7,2.2l2.2,0.9l2.7-0.9l1-0.3l0.9-1.7
					l3.1,1.2l1.5,0.6l6.7-3.4l0.2,0.2l2.5,2.1l-4.1,0.4l-0.5,0.1l-1,1.3l0.6,0.2l2.7,0.9l-0.5,1.9l-0.1,0.2l-3.9,0.7l-0.6-0.2l0,0
					l0,0l-8.2-2.4l-1.2-0.3l-2.4,2.3l-3.9,3.7l2.2,8.6l2.6-0.1l2.7-0.1l2.3-0.1l1.7,5.4l1,3.3l2.7,8.5l4.2-6.1l0.8-1.1l2.2-3.2
					l4.3-8.7l-5.1-1.7l-0.4-6.1l4.3,3.9l0.7-4l3.9,1.4l3.6,1.3l1.2,3l2.1-1l5.4-2.5l2.1,3.2l-0.5,1.8c0,0,0.7,0.9,1.2,1.5
					c0.3,0.3,0.6,0.6,0.6,0.5c0-0.2,0.5-0.9,0.5-1.1c0,0,0,0,0,0c-0.1-0.2-0.5-2.1-0.5-2.1l0.3-0.8l1.9,1.5v-3.7l-0.3-0.6l-0.2-0.3
					l2.6-0.4l0.7-0.1l2.6-2.9l-1.2-4.2l2.1-0.3l1.4,1.9l0.9-2.1l0.5-1.1l1.2-1.2l1.4-1.4l0.7-0.7l-0.1-3.5l-1.7-0.8l3.2-3.4l2.9,0.2
					l0.4,0v0.6l1.3-0.3l1.7-2.3l0.3,0.9l1.8-1l-3.5,5.8l1.8-0.4l3.4-4l0.3,0.9l2.1-1.6l0.8-0.3l0.7-0.2l-0.7-2.6l1.7-1.1L183.9,151z
					"/>
				<polygon class="st17" points="153.4,185.3 150.6,182.8 150.3,183.4 152.6,186.4 154,187.8 154.2,186.3 153.3,185.6 				"/>
				<path class="st17" d="M157.1,184l-1.4,0.8l0.6,1.7l2,0.2c0,0,0.7-1,0.7-1.2c0-0.2-0.1-1.2-0.1-1.2l0.6-0.8l-1.6-0.4L157.1,184z"
					/>
				<path class="st17" d="M160.8,178.3l-0.4-0.2l-0.3,0.1c0,0-0.2,2-0.2,2l1.4,0.5l0.7,0.8l-0.5-1.4l-0.8-0.4l0.1-0.3L160.8,178.3z"
					/>
				<polygon class="st17" points="161.3,183 161.9,183 162.3,182.3 162.1,181.9 161.6,181.9 161.6,181.4 161,180.9 161,181.1 
					160.7,181.2 161,181.7 160.7,182.6 				"/>
				<path class="st17" d="M165.1,185.6l-0.4-0.3l-1.2,0.6l0.4,0.1l0.7,0.3l-0.3,0.2c0,0,0.7,0.4,0.7,0.5c0,0.1,0.5,0.3,0.6,0.3
					c0.1,0,1,0.2,1,0.2s0.2,0.4,0.2,0.6c0,0.1,0.5,0.6,0.6,0.7c0.1,0.1,0.6,0.3,0.6,0.3s0.3-0.6,0.3-0.6c0-0.1,1.2,0,1.2,0l0.1,0.2
					l0.3,0.5l1.4,0.1l-0.7-0.5l-0.5-0.7l-0.3-0.4l-0.2-0.6c0,0-0.7-0.5-0.8-0.6c-0.1,0-2.1-0.9-2.1-0.9l-1.1,0.6l-0.3-0.6
					L165.1,185.6z"/>
				<path class="st17" d="M157.6,188.5c0,0-0.2,0-0.2,0c0,0-1-0.5-1-0.5l-0.2,0.1l-0.9,0l-0.5-0.2l-0.4,0l-0.1,0.1l0.1,0.2l0.1,0.2
					l0.9,0.3l0.5,0l0.7,0.2h0.7l0.6,0.2L157.6,188.5z"/>
				<path class="st17" d="M159.7,185.2c0,0-0.3,1.1-0.2,1.1c0,0,0.1,0.5,0.1,0.5l0,0.7l0.5-0.1l0.2-0.3l0-0.6l0.3,0.5l0.6,0
					l-0.3-0.8l0.2-0.3l0.2-0.3l-0.3,0.1l-0.6,0.2l-0.1-0.4l0.3-0.3l1,0.2l0.4-0.5l-0.6,0.1L160,185C160,185,159.7,185.2,159.7,185.2
					z"/>
				<path class="st17" d="M171.4,194.7c-0.1-0.2-0.2-0.4-0.2-0.4c-0.2-0.1-1.4-1.1-1.4-1.1s-0.1-0.6-0.3-0.9
					c-0.2-0.4-0.6-1.5-0.6-1.5l-1,1l-0.2,0.9l-0.6-0.3l-0.7-0.3l-0.2-1.7l-0.7-0.4l-0.8,0l-0.8,0l-0.2,1.2c0,0-0.5,0.6-0.6,0.5
					c-0.2-0.1-1-0.8-1-0.8l-0.3,0.7l-0.1,0.2l-0.7,1.1c-1.3,0.5-1.9,0.7-1.9,0.7l-1.8,0.7l0.3,1.8l0.3,1.9l-0.1,0.3l-0.4,1.1
					l2.2-0.2l0.7,0.4l2-0.9l2.1-0.3l1.3,1l0.4-0.8l0.2-0.4l0.7,2.4l1.2,0.9l1.6-0.3l1.1,0.1l0.8-1.6l0.1-1.3l0.7-0.2
					c0,0-0.5-1.6-0.5-1.7C172,196.3,171.7,195.3,171.4,194.7z"/>
				<polygon class="st17" points="135.1,188.2 134.4,189.4 133.1,190.1 133,191.4 132.7,192.8 133.7,194.1 135.1,191.5 135.2,189.9 
					135.5,190 135.4,188.4 				"/>
				<polygon class="st17" points="106.5,132.2 109.3,128.3 106.7,128.1 104.4,129.2 104.7,127.8 103.4,127.9 100.7,126.7 104.8,125 
					104.5,123.8 102,123.8 102.8,122.6 101.8,122.4 98.6,123.5 97.7,124.9 96,127.4 94.2,126 91.5,126.6 91.1,127.1 88.1,132 
					88.8,133.5 88.1,134 85.9,135.6 87.6,137.1 89.2,136.9 87.2,138.7 88.4,139.4 91.4,139.6 92.4,143.4 93.6,145.4 93.8,145.7 
					93.1,151.1 93.9,153.1 94.5,154.4 96.4,156.6 98.2,152.9 99,152.4 100.9,151.2 101.8,150.7 104.6,148.8 102.1,146.3 
					103.7,144.1 104.7,142.8 106.3,141.3 105.9,137.3 105.7,135.5 105.7,135.1 105.9,134.4 				"/>
				<path class="st17" d="M100.8,187.9c-0.3-0.2-1.9-1.3-1.9-1.3l-1.8-0.3l-2.6-0.3c0,0,0.2-0.7,0-1c-0.1-0.3-0.9-1.7-0.9-1.7
					l-1.6-0.1l-3.2-2l-3.5,0.3l-0.3,0l-0.5,0.7c-1.6-0.8-4-2-4.8-2.5c-0.1-0.1-0.2-0.1-0.3-0.2c-0.5-0.4-2.6-1.8-2.8-2.2
					c-0.2-0.4,0-3.5,0-3.5l3.9-0.3l2.7,1.7v-1.8v-1.7c0,0,2.3-3.1,2.6-3.3c0.1-0.1,0.7-0.5,1.3-1c0.9-0.7,1.9-1.6,1.9-1.6l-0.8-1.8
					l2.8-1.6l1,2.2l0.2-1.5l0.2-1.6l-2-2.6l-1.3-2.4l-0.2-0.3l-0.4,0.7l-0.8,1.6l-0.7-0.4l-0.1-0.1l-0.2-0.1c0,0,0-0.4-0.1-0.8
					c-0.1-0.6-0.1-1.4-0.2-1.6c0,0-0.1-0.1-0.2-0.2c-0.6-0.4-2.4-1.2-2.4-1.1c0,0-0.2,0.9-0.3,1.7c-0.2,0.9-0.3,1.9-0.3,1.9l0.6,1.1
					l0.2,0.4l-0.8,0.7l0.2,1.1l-1.2-0.6c0,0-0.2-0.5-0.5-0.7c0,0-0.2-0.1-0.4-0.2c-0.9-0.5-2.8-1.6-2.8-1.6l-0.8,0.4l-0.4-3.3
					l1.8-1.9l1-1l2.6-2.2l-1.1-1.8l-1.2,1.9c0,0-1.2-1.7-1.5-2c-0.2-0.3-1-3.7-1-3.7l-4.1,4.4c0,0-1.2-0.1-1.8-0.1
					c-0.1,0-0.2,0-0.3,0.1c0,0,0,0,0,0c-0.1,0.1-0.4,0.2-0.8,0.4c-0.7,0.3-1.6,0.6-1.6,0.6l-0.3-0.3l-1.7-1.5l-4.7-0.5
					c0,0-1.6,0.6-1.8,0.6c0,0-0.4-0.1-0.8-0.2c-1.3-0.4-3.7-1.2-5-1.6c-0.5-0.1-0.8-0.2-0.9-0.2c-0.4,0.1-3.5,2.1-3.5,2.1l-0.3,3.5
					l-0.1,1.1l-0.1,1.2l1.2,2.1l1,1.8l4.7-2.3l0.4,0.2l1.7,0.9l2.4,2.6l4.1,4.4l0.3,3.3l0,0l0.6,1.3l2.1,4.2l1.4,3.7l1.7-1.6l2,4.1
					l0.4,0.7l3.2,1.2l6.3,2.5l-1.7,2.3l1,2.2l1.6,3.5l2.4,1l0,0l-0.8,3.7l-0.1,0.6v3.3l-0.5,4.5l-0.1,0.7l0.1,1.2l0.2,1.9l0.1,0.8
					l1.2,1h0.7l-0.5-3.1l0.2-0.5l1-2.3c0,0,1.4-1.9,1.5-2c0.1-0.1,2.2-1.2,2.2-1.2l-0.3-1.3l-0.2-0.9c0,0,2.2-0.3,2.2-0.4
					s1.9-3.6,2-3.6c0.1-0.1,2.5-1,2.5-1l0.2-2.6l0.1-0.7C98.9,190.6,101.1,188.1,100.8,187.9z"/>
				<polygon class="st17" points="171.5,162.5 171.1,161.6 170.5,161.6 170.1,162.6 170.6,163.6 				"/>
				<path class="st17" d="M169.5,163.8l-0.5,0.7l-1.3,1.3l-0.2,1.3c0,0-0.1,0.2-0.2,0.5c-0.1,0.3-0.3,0.6-0.4,0.9
					c-0.2,0.4-0.3,0.7-0.4,0.9c0,0,0,0.1-0.1,0.1c-0.2,0.2-0.6,0.9-0.6,0.9l1.6-0.8l0.3-0.1l0.1-0.1l0.2-0.1l0.2-0.1l0.7-1l0.3-2
					l0.9-0.6l0.3-1.7l-0.3-0.7L169.5,163.8z"/>
			</g>
		</g>
		<path class="st4" d="M146.3,194.2l1.2,2.8c0,0.1,0.1,0.2,0.2,0.2l2.8,1.2c0.3,0.1,0.3,0.6,0,0.8l-2.8,1.2c-0.1,0-0.2,0.1-0.2,0.2
			l-1.2,2.8c-0.1,0.3-0.6,0.3-0.8,0l-1.2-2.8c0-0.1-0.1-0.2-0.2-0.2l-2.8-1.2c-0.3-0.1-0.3-0.6,0-0.8l2.8-1.2c0.1,0,0.2-0.1,0.2-0.2
			l1.2-2.8C145.7,193.9,146.2,193.9,146.3,194.2z"/>
		<g>
			<g>
				<circle class="st4" cx="187.6" cy="218.7" r="33.4"/>
				<g>
					
						<ellipse transform="matrix(0.7071 -0.7071 0.7071 0.7071 -99.7033 196.722)" class="st15" cx="187.6" cy="218.7" rx="24.2" ry="24.2"/>
					<path class="st0" d="M192.9,195.1c8.4,3.8,14.3,12.2,14.3,22.1c0,13.4-10.8,24.2-24.2,24.2c-1.8,0-3.6-0.2-5.3-0.6
						c3,1.4,6.4,2.1,9.9,2.1c13.4,0,24.2-10.8,24.2-24.2C211.8,207.2,203.7,197.5,192.9,195.1z"/>
				</g>
			</g>
			<g>
				<path class="st4" d="M189.9,200.3c0,1.3-1,2.3-2.3,2.3s-2.3-1-2.3-2.3c0-1.3,1-2.3,2.3-2.3S189.9,199,189.9,200.3z"/>
				<circle class="st4" cx="187.6" cy="236.8" r="2.3"/>
			</g>
			<g>
				<path class="st4" d="M169.3,216.3c1.3,0,2.3,1,2.3,2.3s-1,2.3-2.3,2.3c-1.3,0-2.3-1-2.3-2.3S168.1,216.3,169.3,216.3z"/>
				<path class="st4" d="M205.9,216.3c1.3,0,2.3,1,2.3,2.3s-1,2.3-2.3,2.3c-1.3,0-2.3-1-2.3-2.3S204.6,216.3,205.9,216.3z"/>
			</g>
			<g>
				<polygon class="st4" points="191.3,214.4 179.7,209.8 184.3,221.5 				"/>
				<polygon class="st11" points="184.3,221.5 196,226.1 191.4,214.4 				"/>
			</g>
		</g>
		<g>
			<path class="st3" d="M52.6,158.2l4.7-2.3l0.4,0.2l1.7,0.9l2.4,2.6l4.1,4.4l0.3,3.3l0,0l0.6,1.3l2.1,4.2l1.4,3.7l1.7-1.6l0.4,0.8
				v-27c0,0-0.1,0-0.1,0c-0.1,0-0.2,0-0.3,0.1c0,0,0,0,0,0c-0.1,0.1-0.4,0.2-0.8,0.4c-0.7,0.3-1.6,0.6-1.6,0.6l-0.3-0.3l-1.7-1.5
				l-4.7-0.5c0,0-1.6,0.6-1.8,0.6c0,0-0.4-0.1-0.8-0.2c-1.3-0.4-3.7-1.2-5-1.6c-0.5-0.1-0.8-0.2-0.9-0.2c-0.4,0.1-3.5,2.1-3.5,2.1
				l-0.3,3.5l-0.1,1.1l-0.1,0.9v0.4l1.2,2.1L52.6,158.2z"/>
			<polygon class="st3" points="115.2,162.4 113.7,164 113.7,164 113.3,166.3 110.1,166.7 109.4,169 111.6,169.9 114.2,169 
				115.2,168.7 116.1,167 116.4,167.1 116.4,161 116.4,161 			"/>
			<polygon class="st3" points="113.3,170.5 110.8,172.7 106.9,176.4 109.1,185 111.7,184.8 114.4,184.7 116.4,184.6 116.4,171.4 
				114.4,170.8 			"/>
			<path class="st3" d="M116,156.8l0.4,0v-1.2c-0.3,0.7-0.6,1.1-0.6,1.1L116,156.8z"/>
			<polygon class="st3" points="96.4,156.6 98.2,152.9 99,152.4 100.9,151.2 101.8,150.7 104.6,148.8 102.1,146.3 103.7,144.1 
				104.7,142.8 106.3,141.3 105.9,137.3 105.7,135.5 105.7,135.1 105.9,134.4 106.5,132.2 109.3,128.3 106.7,128.1 104.4,129.2 
				104.7,127.8 103.4,127.9 100.7,126.7 104.8,125 104.5,123.8 102,123.8 102.8,122.6 101.8,122.4 98.6,123.5 97.7,124.9 96,127.4 
				94.4,126.2 94.4,154.2 94.5,154.4 			"/>
			<path class="st3" d="M98.6,193.9l0.2-2.6l0.1-0.7c0,0,2.3-2.6,1.9-2.7c-0.3-0.2-1.9-1.3-1.9-1.3l-1.8-0.3l-2.6-0.3
				c0,0,0.2-0.7,0-1c0-0.1-0.1-0.2-0.2-0.3v13.1c0.6-1,1.6-2.8,1.6-2.9C96.2,194.7,98.6,193.9,98.6,193.9z"/>
			<path class="st3" d="M141.7,180.3l2.1-1l5.4-2.5l2.1,3.2l-0.5,1.8c0,0,0.7,0.9,1.2,1.5c0.3,0.3,0.6,0.6,0.6,0.5
				c0-0.2,0.5-0.9,0.5-1.1c0,0,0,0,0,0c-0.1-0.2-0.5-2.1-0.5-2.1l0.3-0.8l1.9,1.5v-3.7l-0.3-0.6l-0.2-0.3l2.6-0.4l0.7-0.1l2.6-2.9
				l-1.2-4.2l1.3-0.2v-25.3l-0.2,0.4l-1.6-1.1l-0.5,0.3l-0.6,0.3H156l-1.2,0.5l-1.3,0.5l1.2-1l2.3-1.9l0.8-0.7L156,138l-1.1,0.4
				l-0.3,0.1l-0.8-1.2l-0.1-0.2l-1.5,1.5l-0.8,1.5l-0.9-0.2l-1-0.3l-2.5,1.5l-0.6,2.5l-1.6,0.3l0.3,1.2l0.7,2.6l-1.8-1.5l-1.1-0.9
				l-0.6,1.4l0,1.1l0,2.7l-1-1.2l0-0.4l-0.2-4.4l-2,2.1l-0.2,2.4l-0.8-0.3v28.1l2.1,0.7L141.7,180.3z"/>
			<polygon class="st3" points="153.4,185.3 150.6,182.8 150.3,183.4 152.6,186.4 154,187.8 154.2,186.3 153.3,185.6 			"/>
			<path class="st3" d="M158.3,186.7c0,0,0.7-1,0.7-1.2c0-0.2-0.1-1.2-0.1-1.2l0.6-0.8l-1.6-0.4l-0.8,0.9l-1.4,0.8l0.6,1.7
				L158.3,186.7z"/>
			<path class="st3" d="M160.1,178.2c0,0-0.2,2-0.2,2l0.6,0.2v-2.3l0,0L160.1,178.2z"/>
			<path class="st3" d="M157.6,188.5c0,0-0.2,0-0.2,0c0,0-1-0.5-1-0.5l-0.2,0.1l-0.9,0l-0.5-0.2l-0.4,0l-0.1,0.1l0.1,0.2l0.1,0.2
				l0.9,0.3l0.5,0l0.7,0.2h0.7l0.6,0.2L157.6,188.5z"/>
			<path class="st3" d="M159.7,185.2c0,0-0.3,1.1-0.2,1.1c0,0,0.1,0.5,0.1,0.5l0,0.7l0.5-0.1l0.2-0.3l0-0.6l0.3,0.5l0.1,0v-1.2
				l-0.3,0.1l-0.1-0.4l0.3-0.3l0.1,0V185l-0.5,0C160,185,159.7,185.2,159.7,185.2z"/>
			<path class="st3" d="M157.3,194.2l0.3,1.8l0.3,1.9l-0.1,0.3l-0.4,1.1l2.2-0.2l0.7,0.4l0.2-0.1v-6.4c-0.9,0.3-1.3,0.5-1.3,0.5
				L157.3,194.2z"/>
			<polygon class="st3" points="182.4,154.2 182.4,155 182.6,155 			"/>
			<path class="st3" d="M183.9,151l-0.6-1.8c0,0-0.3-0.1-0.6-0.4c-0.1,0-0.1-0.1-0.2-0.1v3.2l1.2-0.8L183.9,151z"/>
		</g>
		<path class="st1" d="M141.5,235.2c-1.8,0-3.4,0.4-4.9,1.1c-1.3-5.2-6-9-11.5-9c0,0-0.1,0-0.1,0c-1-7.2-7.1-12.7-14.5-12.7
			c-8.1,0-14.7,6.6-14.7,14.7c0,1.3,0.2,2.5,0.5,3.6c-3.8,0.2-6.9,2.6-8.3,5.9c-1.6-1.2-3.5-1.8-5.6-1.8c-4.7,0-8.6,3.4-9.3,7.9
			h79.5C151.9,239.5,147.2,235.2,141.5,235.2z"/>
	</g>
</g>
</svg>
